<?xml version="1.0" encoding="UTF-8"?>
<!DOCTYPE svg PUBLIC "-//W3C//DTD SVG 1.1//EN" "http://www.w3.org/Graphics/SVG/1.1/DTD/svg11.dtd">
<svg xmlns="http://www.w3.org/2000/svg" xmlns:xlink="http://www.w3.org/1999/xlink" version="1.1" width="651px"
     height="648px" viewBox="-0.5 -0.5 651 648" class="ge-export-svg-dark" style="background-color: rgb(0, 0, 0);">
    <defs>
        <style type="text/css">
            text { font-family: Helvetica; font-size: 12px; font-weight: bold; }
        </style>
    </defs>
    <rect fill="#ffffff" width="100%" height="100%" x="0" y="0"/>
    <g>
<!--        <rect x="137" y="105" width="353" height="542" fill="rgb(255, 255, 255)" stroke="rgb(0, 0, 0)" pointer-events="all"/>-->
        <rect x="154" y="122" width="80" height="80" fill="#e1d5e7" stroke="#9673a6" pointer-events="all"/>
        <rect x="234" y="122" width="80" height="80" fill="#e1d5e7" stroke="#9673a6" pointer-events="all"/>
        <rect x="314" y="122" width="80" height="80" fill="#e1d5e7" stroke="#9673a6" pointer-events="all"/>
        <rect x="154" y="202" width="80" height="80" fill="#e1d5e7" stroke="#9673a6" pointer-events="all"/>

        <rect x="314" y="202" width="80" height="80" fill="#ffe6cc" stroke="#d79b00" pointer-events="all"/>
        <rect x="394" y="282" width="80" height="80" fill="#ffe6cc" stroke="#d79b00" pointer-events="all"/>
        <rect x="314" y="282" width="80" height="80" fill="#fff2cc" stroke="#d6b656" pointer-events="all"/>
        <rect x="394" y="202" width="80" height="80" fill="#fff2cc" stroke="#d6b656" pointer-events="all"/>
        <path d="M 314 362 L 394 282" fill="none" stroke="#663300" stroke-miterlimit="10" pointer-events="stroke"/>
        <rect x="314" y="233" width="24" height="14" fill="#ffb366" stroke="#cc6600" pointer-events="all"/>


        <rect x="234" y="282" width="80" height="80" fill="#f8cecc" stroke="#b85450" pointer-events="all"/>

        <rect x="234" y="202" width="80" height="80" fill="#f8cecc" stroke="#b85450" pointer-events="all"/>

        <rect x="394" y="122" width="80" height="80" fill="#f5f5f5" stroke="#666666" pointer-events="all"/>


        <rect x="154" y="362" width="320" height="148" fill="#ffe6cc" stroke="#d79b00" pointer-events="all"/>

        <rect x="154" y="510" width="320" height="120" fill="#ffe6cc" stroke="#d79b00" pointer-events="all"/>
        
        <text x="274" y="326" text-anchor="middle">Aufzug</text>
        <text x="194" y="326" text-anchor="middle">Umkleide</text>
        <text x="274" y="246" text-anchor="middle">Treppe</text>
        
        <rect x="154" y="282" width="80" height="80" fill="#f8cecc" stroke="#b85450" pointer-events="all"/>
        
        <text x="314" y="440" text-anchor="middle">Kartoffelhalle</text>
        <text x="314" y="574" text-anchor="middle">Fritteuse</text>
                
        <g id="fritteuse">
            <text x="171" y="615" text-anchor="middle" id="l001">D01</text>
            <text x="169" y="567" text-anchor="middle" id="l002">D02</text>
            <text x="171" y="529" text-anchor="middle" id="l003">D03</text>
            <text x="213" y="529" text-anchor="middle" id="l004">D04</text>
            <text x="253" y="529" text-anchor="middle" id="l005">D05</text>
            <text x="293" y="529" text-anchor="middle" id="l006">D06</text>
            <text x="330" y="529" text-anchor="middle" id="l007">D07</text>
            <text x="402" y="529" text-anchor="middle" id="l008">D08</text>
            <text x="446" y="529" text-anchor="middle" id="l009">D09</text>
        </g>
        <g id="kartoffelhalle">
            <text x="216" y="499" text-anchor="middle" id="l911">911</text>
            <text x="251" y="499" text-anchor="middle" id="l910">910</text>
            <text x="293" y="499" text-anchor="middle" id="l909">909</text>
            <text x="411" y="499" text-anchor="middle" id="l907">907</text>
            <text x="454" y="499" text-anchor="middle" id="l906">906</text>
            <text x="454" y="463" text-anchor="middle" id="l905">905</text>
            <text x="454" y="429" text-anchor="middle" id="l904">904</text>
            <text x="454" y="393" text-anchor="middle" id="l903">903</text>
            <text x="441" y="381" text-anchor="middle" id="l902">902</text>
            <text x="406" y="381" text-anchor="middle" id="l901">901</text>
            <text x="180" y="499" text-anchor="middle" id="l912">912</text>
            <text x="181" y="440" text-anchor="middle" id="l913">913</text>
            <text x="180" y="381" text-anchor="middle" id="l914">914</text>
            <text x="216" y="381" text-anchor="middle" id="l915">915</text>
            <text x="253" y="381" text-anchor="middle" id="l916">916</text>
            <text x="288" y="381" text-anchor="middle" id="l917">917</text>
            <text x="318" y="381" text-anchor="middle" id="l918">918</text>
        </g>

        <text x="216" y="277" text-anchor="middle" id="l101">101</text>
        <text x="182" y="277" text-anchor="middle" id="l102">102</text>
        <text x="167" y="260" text-anchor="middle" id="l104">104</text>
        <text x="167" y="234" text-anchor="middle" id="l105">105</text>
        <text x="191" y="217" text-anchor="middle" id="l107">107</text>

        <text x="200" y="198" text-anchor="middle" id="l201">201</text>
        <text x="167" y="198" text-anchor="middle" id="l202">202</text>
        <text x="167" y="180" text-anchor="middle" id="l203">203</text>
        <text x="167" y="157" text-anchor="middle" id="l204">204</text>
        <text x="175" y="134" text-anchor="middle" id="l206">206</text>
        <text x="202" y="134" text-anchor="middle" id="l207">207</text>
        <text x="224" y="134" text-anchor="middle" id="l208">208</text>
        <text x="246" y="180" text-anchor="middle" id="l301">301</text>
        <text x="246" y="157" text-anchor="middle" id="l302">302</text>
        <text x="253" y="134" text-anchor="middle" id="l304">304</text>
        <text x="278" y="134" text-anchor="middle" id="l305">305</text>
        <text x="302" y="134" text-anchor="middle" id="l306">306</text>
        <text x="302" y="157" text-anchor="middle" id="l307">307</text>
        <text x="302" y="180" text-anchor="middle" id="l308">308</text>
        <text x="325" y="157" text-anchor="middle" id="l402">402</text>
        <text x="336" y="134" text-anchor="middle" id="l403">403</text>
        <text x="362" y="134" text-anchor="middle" id="l404">404</text>
        <text x="383" y="134" text-anchor="middle" id="l405">405</text>
        <text x="383" y="157" text-anchor="middle" id="l406">406</text>
        <text x="383" y="180" text-anchor="middle" id="l407">407</text>
        <text x="370" y="198" text-anchor="middle" id="l409">409</text>
        <text x="344" y="198" text-anchor="middle" id="l410">410</text>

        <text x="327" y="281" text-anchor="middle" id="l601">601</text>
        <text x="326" y="260" text-anchor="middle" id="l602">602</text>
        <text x="351" y="244" text-anchor="middle" id="l603">603</text>
        <text x="327" y="230" text-anchor="middle" id="l604">604</text>
        <text x="326" y="214" text-anchor="middle" id="l605">605</text>
        <text x="348" y="214" text-anchor="middle" id="l606">606</text>
        <text x="373" y="214" text-anchor="middle" id="l607">607</text>
        <text x="383" y="225" text-anchor="middle" id="l608">608</text>
        <text x="406" y="279" text-anchor="middle" id="l701">701</text>
        <text x="433" y="279" text-anchor="middle" id="l702">702</text>
        <text x="462" y="279" text-anchor="middle" id="l703">703</text>
        <text x="406" y="255" text-anchor="middle" id="l704">704</text>
        <text x="434" y="297" text-anchor="middle" id="l801">801</text>
        <text x="462" y="297" text-anchor="middle" id="l802">802</text>
        <text x="462" y="320" text-anchor="middle" id="l803">803</text>
        <text x="461" y="342" text-anchor="middle" id="l804">804</text>
        <text x="446" y="357" text-anchor="middle" id="l805">805</text>
        <text x="415" y="357" text-anchor="middle" id="l806">806</text>
        <text x="340" y="360" text-anchor="middle" id="l501">501</text>
        <text x="364" y="336" text-anchor="middle" id="l502">502</text>
        <text x="383" y="315" text-anchor="middle" id="l503">503</text>
        <text x="362" y="297" text-anchor="middle" id="l504">504</text>
        <text x="344" y="320" text-anchor="middle" id="l505">505</text>
        <text x="326" y="339" text-anchor="middle" id="l506">506</text>

    </g>
</svg>